<?xml version="1.0" standalone="no"?>
<!DOCTYPE svg PUBLIC "-//W3C//DTD SVG 20010904//EN"
 "http://www.w3.org/TR/2001/REC-SVG-20010904/DTD/svg10.dtd">
<svg version="1.0" xmlns="http://www.w3.org/2000/svg"
 width="512.000000pt" height="512.000000pt" viewBox="0 0 512.000000 512.000000"
 preserveAspectRatio="xMidYMid meet">

<g transform="translate(0.000000,512.000000) scale(0.100000,-0.100000)"
fill="#000000" stroke="none">
<path d="M3312 3795 c-63 -29 -131 -95 -160 -157 -32 -64 -47 -156 -36 -209
l9 -43 123 213 c68 117 122 215 120 217 -2 2 -27 -8 -56 -21z"/>
<path d="M1690 2272 c-50 -25 -97 -59 -140 -102 -55 -54 -539 -585 -1297
-1422 l-134 -147 41 -68 c84 -137 222 -280 339 -350 l36 -21 618 1070 c340
589 616 1072 614 1074 -1 2 -36 -14 -77 -34z"/>
<path d="M3391 2048 c-65 -18 -357 -217 -494 -336 l-48 -42 122 -130 c109
-117 123 -129 134 -113 9 14 109 186 362 626 6 10 -34 7 -76 -5z"/>
</g>
</svg>
